<svg xmlns="http://www.w3.org/2000/svg" xmlns:xlink="http://www.w3.org/1999/xlink" width="22" height="22" viewBox="0 0 22 22">
  <defs>
    <clipPath id="clip-globe-white">
      <rect width="22" height="22"/>
    </clipPath>
  </defs>
  <g id="globe-white" clip-path="url(#clip-globe-white)">
    <path id="Icon_awesome-globe-americas" data-name="Icon awesome-globe-americas" d="M11,.563a11,11,0,1,0,11,11A11,11,0,0,0,11,.563Zm3.65,15.861-.5.5a1.06,1.06,0,0,0-.274.475c-.067.251-.121.5-.212.748l-.771,2.078A8.864,8.864,0,0,1,11,20.433V19.219a3.321,3.321,0,0,0-1-2.273,1.419,1.419,0,0,1-.416-1v-1.42a1.415,1.415,0,0,0-.73-1.241c-.637-.353-1.544-.845-2.165-1.158a6.394,6.394,0,0,1-1.4-.965l-.035-.032a5.092,5.092,0,0,1-.8-.92C4.029,9.6,3.351,8.592,2.911,7.939A8.919,8.919,0,0,1,7.488,3.419l1.065.533a.71.71,0,0,0,1.027-.635v-.5a8.864,8.864,0,0,1,1.082-.107l1.255,1.255a.71.71,0,0,1,0,1l-.208.208-.459.459a.355.355,0,0,0,0,.5l.208.208a.355.355,0,0,1,0,.5L11.1,7.2a.355.355,0,0,1-.251.1h-.4a.355.355,0,0,0-.248.1l-.44.428a.355.355,0,0,0-.07.413l.691,1.383a.355.355,0,0,1-.317.514h-.25a.354.354,0,0,1-.232-.087L9.177,9.7a.71.71,0,0,0-.69-.137L7.1,10.022A.53.53,0,0,0,7.036,11l.491.246a3,3,0,0,0,1.344.318c.467,0,1,1.21,1.419,1.419h2.961a1.42,1.42,0,0,1,1,.416l.607.607a1.353,1.353,0,0,1,.4.957,2.064,2.064,0,0,1-.609,1.463ZM18.5,12.372a1.065,1.065,0,0,1-.628-.442l-.8-1.2a1.063,1.063,0,0,1,0-1.181l.869-1.3a1.063,1.063,0,0,1,.41-.361l.576-.288a8.593,8.593,0,0,1,.865,5.1Z" transform="translate(0 -0.563)" fill="#fff"/>
  </g>
</svg>
