<svg xmlns="http://www.w3.org/2000/svg" xmlns:xlink="http://www.w3.org/1999/xlink" width="22" height="22" viewBox="0 0 22 22">
  <defs>
    <clipPath id="clip-Instagram-white">
      <rect width="22" height="22"/>
    </clipPath>
  </defs>
  <g id="Instagram-white" clip-path="url(#clip-Instagram-white)">
    <path id="instagram" d="M11,1.983c2.937,0,3.285.011,4.446.064,2.981.136,4.373,1.55,4.509,4.509.053,1.16.063,1.508.063,4.445s-.011,3.285-.063,4.445c-.137,2.956-1.525,4.373-4.509,4.509-1.16.053-1.507.064-4.446.064s-3.285-.011-4.445-.064c-2.988-.137-4.373-1.557-4.509-4.51-.053-1.16-.064-1.507-.064-4.445s.012-3.284.064-4.445C2.183,3.6,3.571,2.182,6.555,2.046,7.716,1.994,8.063,1.983,11,1.983ZM11,0C8.013,0,7.639.013,6.465.066,2.47.249.25,2.466.067,6.464.013,7.639,0,8.013,0,11s.013,3.362.066,4.536c.183,3.995,2.4,6.215,6.4,6.4C7.639,21.987,8.013,22,11,22s3.362-.013,4.536-.066c3.991-.183,6.217-2.4,6.4-6.4C21.987,14.362,22,13.987,22,11s-.013-3.361-.066-4.535c-.18-3.991-2.4-6.215-6.4-6.4C14.362.013,13.987,0,11,0Zm0,5.352A5.649,5.649,0,1,0,16.649,11,5.649,5.649,0,0,0,11,5.352Zm0,9.315A3.667,3.667,0,1,1,14.667,11,3.666,3.666,0,0,1,11,14.667ZM16.872,3.809a1.32,1.32,0,1,0,1.319,1.32A1.321,1.321,0,0,0,16.872,3.809Z" fill="#fff"/>
  </g>
</svg>
