<svg xmlns="http://www.w3.org/2000/svg" xmlns:xlink="http://www.w3.org/1999/xlink" width="22" height="22" viewBox="0 0 22 22">
  <defs>
    <clipPath id="clip-lastfm-pink">
      <rect width="22" height="22"/>
    </clipPath>
  </defs>
  <g id="lastfm-pink" clip-path="url(#clip-lastfm-pink)">
    <path id="Icon_awesome-lastfm" data-name="Icon awesome-lastfm" d="M9.7,18.886l-.808-2.191A4.8,4.8,0,0,1,5.62,18.155c-1.74,0-2.973-1.513-2.973-3.932,0-3.1,1.564-4.207,3.1-4.207,2.857,0,3.214,2.29,4.336,5.8.808,2.445,2.32,4.409,6.677,4.409,3.124,0,5.242-.958,5.242-3.476,0-3.132-2.694-3.463-4.941-3.957-1.109-.254-1.435-.7-1.435-1.461,0-.855.679-1.362,1.787-1.362,1.212,0,1.865.455,1.964,1.538l2.518-.3c-.2-2.269-1.766-3.2-4.336-3.2-2.269,0-4.486.855-4.486,3.605,0,1.714.834,2.8,2.922,3.3,1.929.455,3.429.593,3.429,1.964,0,.932-.907,1.311-2.621,1.311a3.994,3.994,0,0,1-4.207-3.175c-1.375-4.159-1.873-7-6.931-7C1.964,8,0,10.343,0,14.327c0,3.829,1.964,5.9,5.5,5.9A6.186,6.186,0,0,0,9.7,18.886Z" transform="translate(0 -3.112)" fill="#f6a"/>
  </g>
</svg>
