<svg xmlns="http://www.w3.org/2000/svg" xmlns:xlink="http://www.w3.org/1999/xlink" width="22" height="22" viewBox="0 0 22 22">
  <defs>
    <clipPath id="clip-linkedin-dark">
      <rect width="22" height="22"/>
    </clipPath>
  </defs>
  <g id="linkedin-dark" clip-path="url(#clip-linkedin-dark)">
    <path id="linkedin" d="M17.417,0H4.583A4.584,4.584,0,0,0,0,4.583V17.417A4.584,4.584,0,0,0,4.583,22H17.417A4.583,4.583,0,0,0,22,17.417V4.583A4.583,4.583,0,0,0,17.417,0ZM7.333,17.417H4.583V7.333h2.75ZM5.958,6.171a1.617,1.617,0,1,1,1.6-1.617A1.611,1.611,0,0,1,5.958,6.171ZM18.333,17.417h-2.75V12.28c0-3.087-3.667-2.854-3.667,0v5.137H9.167V7.333h2.75V8.951c1.28-2.37,6.417-2.546,6.417,2.27Z"/>
  </g>
</svg>
