<svg xmlns="http://www.w3.org/2000/svg" xmlns:xlink="http://www.w3.org/1999/xlink" width="22" height="22" viewBox="0 0 22 22">
  <defs>
    <clipPath id="clip-twitter-dark">
      <rect width="22" height="22"/>
    </clipPath>
  </defs>
  <g id="twitter-dark" clip-path="url(#clip-twitter-dark)">
    <path id="twitter" d="M11,0A11,11,0,1,0,22,11,11,11,0,0,0,11,0Zm5.561,8.841A7.487,7.487,0,0,1,5.042,15.49a5.3,5.3,0,0,0,3.9-1.09,2.639,2.639,0,0,1-2.46-1.829,2.641,2.641,0,0,0,1.19-.045A2.637,2.637,0,0,1,5.557,9.911a2.627,2.627,0,0,0,1.193.329,2.637,2.637,0,0,1-.815-3.515,7.473,7.473,0,0,0,5.427,2.751,2.635,2.635,0,0,1,4.487-2.4,5.252,5.252,0,0,0,1.672-.639,2.644,2.644,0,0,1-1.158,1.457,5.252,5.252,0,0,0,1.512-.415A5.285,5.285,0,0,1,16.561,8.841Z"/>
  </g>
</svg>
